<svg xmlns="http://www.w3.org/2000/svg" viewBox="0 0 806.72 268.07"><defs><style>.cls-1,.cls-2{fill:#fff;stroke:#fff;stroke-miterlimit:10;}.cls-2{stroke-width:8px;}</style></defs><title>Asset 3</title><g id="Layer_2" data-name="Layer 2"><g id="Layer_1-2" data-name="Layer 1"><path class="cls-1" d="M463.33,35.28l15.2,65.94,3.31,18.35,3.32-18,13-66.32h25.39l13.68,65.94,3.5,18.36,3.55-17.65,15.35-66.65h24.5l-32.4,115.16h-23L514.82,83.09l-4.06-22.27-4.06,22.27-13.91,67.34H470.44L437.79,35.28Z"/><path class="cls-1" d="M635,63.29l1.91.12V86.22q-2.11-.23-3.75-.31t-2.66-.08q-13.44,0-18,8.75-2.58,4.92-2.58,15.16v40.7H587.44V65.28h21.25V80.12q5.16-8.51,9-11.64,6.25-5.23,16.25-5.23C634.34,63.25,634.69,63.26,635,63.29Z"/><path class="cls-1" d="M666.43,55.12H643.85V34.57h22.58ZM643.85,65.28h22.58v85.16H643.85Z"/><path class="cls-1" d="M672.84,81.92V66.06h11.88V42.31h22V66.06h13.83V81.92H706.75v45q0,5.24,1.33,6.52t8.13,1.29q1,0,2.15,0t2.23-.12v16.64l-10.55.39q-15.78.55-21.56-5.47-3.75-3.83-3.75-11.8V81.92Z"/><path class="cls-1" d="M784,67a34.64,34.64,0,0,1,14.72,12.6,41.86,41.86,0,0,1,6.79,17.61,109,109,0,0,1,.73,16.9h-62q.52,12.81,8.91,18a22.61,22.61,0,0,0,12.28,3.2q7.61,0,12.36-3.91a18.72,18.72,0,0,0,4.58-5.86H805q-.9,7.58-8.25,15.39-11.44,12.42-32,12.42a46.42,46.42,0,0,1-30-10.48q-13-10.48-13-34.09,0-22.13,11.73-33.93T763.94,63A48.48,48.48,0,0,1,784,67ZM750.66,86.24q-4.72,4.87-5.93,13.18h38.36q-.61-8.87-5.93-13.46a19.51,19.51,0,0,0-13.21-4.59Q755.37,81.37,750.66,86.24Z"/><g id="V3"><path class="cls-1" d="M173.85,61.84c-19.06,0-52.5,78.06-26.45,89.51,3.27,1.43,7.08,2,10.69,0,9.71-5.33,21.81-21.58,31-36,4.88-7.7,6.68-12,5.63-12.95s-3.61.91-5.59,2.47c0,0-19.75,26.84-26.78,24.9-6.19-1.71,6.14-32.18,19.43-41,2-1.32,3.78.78,5.75-.87,2.58-2.16,2.79-8.79,1.55-12C186.54,69.44,179.77,61.83,173.85,61.84Z"/><path class="cls-1" d="M222.34.51c-19-1-43.81,146.58-32.05,150.46,3.39,1.12,7.08,2,10.69,0,9.71-5.33,21.81-21.58,31-36,4.88-7.7,6.68-12,5.63-12.95s-3.61.91-5.59,2.47c0,0-19.75,26.84-26.78,24.9C199,127.65,229.87,8.89,228.84,3.88,228.3,1.21,224.56.62,222.34.51Z"/><path class="cls-1" d="M114.4,62.46c-19.06,0-52.5,78.06-26.45,89.51,3.27,1.43,7.36,2.42,10.69,0,47.07-34.14,60.45-104,30.93-97.12-1.65.38-.35,2.89-1.18,5.9-1.39,5-4.37,11.45-4.92,11.88,0,0,7.09,27.28-8.86,48.14-6,7.91-6.81,11-11.76,9.59-6.19-1.71,6.14-32.18,19.43-41,2-1.32,3.78.78,5.75-.87,2.58-2.16,2.79-8.79,1.55-12s2.83-10,.22-12.62C127,61,117.47,62.45,114.4,62.46Z"/><path class="cls-1" d="M257.13,62.15c-19.06,0-52.5,78.06-26.45,89.51,3.27,1.43,7.36,2.42,10.69,0,47.07-34.15,60.45-104,30.94-97.13-1.65.38-.35,2.89-1.18,5.9-1.39,5-4.37,11.45-4.92,11.88,0,0,7.09,27.28-8.86,48.14-6,7.91-6.81,11-11.76,9.59-6.19-1.71,6.14-32.18,19.43-41,2-1.32,3.78.78,5.75-.87,2.58-2.16,2.79-8.79,1.55-12s2.83-10,.22-12.62C269.73,60.73,260.2,62.15,257.13,62.15Z"/><path class="cls-1" d="M391.38,61.34c-19.06,0-52.5,78.06-26.45,89.51,3.27,1.43,7.36,2.42,10.69,0,47.07-34.14,60.45-104,30.93-97.12-1.65.38-.35,2.89-1.18,5.9-1.39,5-4.37,11.45-4.92,11.88,0,0,7.09,27.28-8.86,48.14-6,7.91-6.81,11-11.76,9.59-6.19-1.71,6.14-32.18,19.43-41,2-1.32,3.78.78,5.75-.87,2.58-2.16,2.79-8.79,1.55-12s2.83-10,.22-12.62C404,59.92,394.45,61.34,391.38,61.34Z"/><path class="cls-1" d="M65.6,11.33c-31.44.06-93.39,121.34-50.41,140.21,5.4,2.37,11.68,3.28,17.65,0C48.85,142.73,87,111,102,87.24c8.05-12.71,11-19.88,9.29-21.36-2-1.68-6,1.49-9.22,4.08,0,0-53.9,64.43-65.49,61.23-10.21-2.82,9.06-72.11,31-86.6,3.31-2.18,8.89,4.49,12.15,1.76,4.26-3.56,6.2-14,4.16-19.25C79.77,16.4,75.35,11.31,65.6,11.33Z"/><path class="cls-1" d="M316.77,61.84c-19.06,0-52.5,78.06-26.45,89.51,3.27,1.43,7.08,2,10.69,0,9.71-5.33,21.81-21.58,31-36,4.88-7.7,6.68-12,5.63-12.95s-3.61.91-5.59,2.47c0,0-19.75,26.84-26.78,24.9-6.19-1.71,6.14-32.18,19.43-41,2-1.32,3.78.78,5.75-.87,2.58-2.16,2.79-8.79,1.55-12C329.46,69.44,322.7,61.83,316.77,61.84Z"/><path class="cls-1" d="M338.42,61.84c.23-1.68,14.28-4,14.51,3,3,92.94-37.51,214.36-84.48,201.88-11.24-3-20.09-37.57-9-59.46,19.41-38.28,89.95-84.77,96.5-86.65l2.93,6.79c-16.05,7.08-65.58,62-80.95,81.85-14,18-10,51.47.5,42.47C284.46,246.51,316.44,224.2,338.42,61.84Z"/><path class="cls-2" d="M130.3,81.84s21.85-2.51,36.1-11.33"/><path class="cls-2" d="M279.16,77.77s21.85-2.51,36.1-11.33"/></g></g></g></svg>