<svg id="Layer_1" data-name="Layer 1" xmlns="http://www.w3.org/2000/svg" viewBox="0 0 208.89 267.14"><defs><style>.white{fill:#fff;}</style></defs><title>Codogo Logo C</title><g id="V3"><path id="C" class="white" d="M226.47,331.71c-59,.12-175.27,227.73-94.61,263.14,10.13,4.45,21.93,6.15,33.12,0,30.06-16.52,101.57-76,129.89-120.67,15.11-23.86,20.68-37.31,17.43-40.09-3.7-3.16-11.18,2.8-17.3,7.65,0,0-101.16,120.92-122.92,114.91-19.16-5.3,17-135.34,58.15-162.53,6.21-4.1,16.69,8.42,22.81,3.3,8-6.69,11.64-26.21,7.8-36.12C253.07,341.24,244.78,331.67,226.47,331.71Z" transform="translate(-104.29 -331.71)"/></g></svg>