<svg xmlns="http://www.w3.org/2000/svg" viewBox="0 0 805.72 267.07"><defs><style>.cls-1,.cls-2{fill:#222;}.cls-2{stroke:#222;stroke-miterlimit:10;stroke-width:8px;}</style></defs><title>Logo Main</title><g id="Layer_2" data-name="Layer 2"><g id="Layer_1-2" data-name="Layer 1"><path class="cls-1" d="M462.83,34.78,478,100.72l3.31,18.35,3.32-18,13-66.32h25.39l13.68,65.94,3.5,18.36,3.55-17.65,15.35-66.65h24.5l-32.4,115.16h-23L514.32,82.59l-4.06-22.27-4.06,22.27-13.91,67.34H469.94L437.29,34.78Z"/><path class="cls-1" d="M634.48,62.79l1.91.12V85.72q-2.11-.23-3.75-.31T630,85.32q-13.44,0-18,8.75-2.58,4.92-2.58,15.16v40.7H586.94V64.78h21.25V79.62q5.16-8.51,9-11.64,6.25-5.23,16.25-5.23C633.84,62.75,634.19,62.76,634.48,62.79Z"/><path class="cls-1" d="M665.93,54.62H643.35V34.07h22.58ZM643.35,64.78h22.58v85.16H643.35Z"/><path class="cls-1" d="M672.34,81.42V65.56h11.88V41.81h22V65.56h13.83V81.42H706.25v45q0,5.24,1.33,6.52t8.13,1.29q1,0,2.15,0t2.23-.12v16.64l-10.55.39q-15.78.55-21.56-5.47-3.75-3.83-3.75-11.8V81.42Z"/><path class="cls-1" d="M783.46,66.5a34.64,34.64,0,0,1,14.72,12.6A41.86,41.86,0,0,1,805,96.71a109,109,0,0,1,.73,16.9h-62q.52,12.81,8.91,18a22.61,22.61,0,0,0,12.28,3.2q7.61,0,12.36-3.91A18.72,18.72,0,0,0,781.8,125h22.73q-.9,7.58-8.25,15.39-11.44,12.42-32,12.42a46.42,46.42,0,0,1-30-10.48q-13-10.48-13-34.09,0-22.13,11.73-33.93t30.45-11.81A48.48,48.48,0,0,1,783.46,66.5ZM750.16,85.74q-4.72,4.87-5.93,13.18h38.36q-.61-8.87-5.93-13.46a19.51,19.51,0,0,0-13.21-4.59Q754.87,80.87,750.16,85.74Z"/><g id="V3"><path class="cls-1" d="M173.35,61.34c-19.06,0-52.5,78.06-26.45,89.51,3.27,1.43,7.08,2,10.69,0,9.71-5.33,21.81-21.58,31-36,4.88-7.7,6.68-12,5.63-12.95s-3.61.91-5.59,2.47c0,0-19.75,26.84-26.78,24.9-6.19-1.71,6.14-32.18,19.43-41,2-1.32,3.78.78,5.75-.87,2.58-2.16,2.79-8.79,1.55-12C186,68.94,179.27,61.33,173.35,61.34Z"/><path class="cls-1" d="M221.84,0c-19-1-43.81,146.58-32.05,150.46,3.39,1.12,7.08,2,10.69,0,9.71-5.33,21.81-21.58,31-36,4.88-7.7,6.68-12,5.63-12.95s-3.61.91-5.59,2.47c0,0-19.75,26.84-26.78,24.9C198.5,127.15,229.37,8.39,228.34,3.38,227.8.71,224.06.12,221.84,0Z"/><path class="cls-1" d="M113.9,62C94.84,62,61.4,140,87.45,151.47c3.27,1.43,7.36,2.42,10.69,0,47.07-34.14,60.45-104,30.93-97.12-1.65.38-.35,2.89-1.18,5.9-1.39,5-4.37,11.45-4.92,11.88,0,0,7.09,27.28-8.86,48.14-6,7.91-6.81,11-11.76,9.59-6.19-1.71,6.14-32.18,19.43-41,2-1.32,3.78.78,5.75-.87,2.58-2.16,2.79-8.79,1.55-12s2.83-10,.22-12.62C126.5,60.53,117,62,113.9,62Z"/><path class="cls-1" d="M256.63,61.65c-19.06,0-52.5,78.06-26.45,89.51,3.27,1.43,7.36,2.42,10.69,0C287.94,117,301.32,47.14,271.8,54c-1.65.38-.35,2.89-1.18,5.9-1.39,5-4.37,11.45-4.92,11.88,0,0,7.09,27.28-8.86,48.14-6,7.91-6.81,11-11.76,9.59-6.19-1.71,6.14-32.18,19.43-41,2-1.32,3.78.78,5.75-.87,2.58-2.16,2.79-8.79,1.55-12s2.83-10,.22-12.62C269.23,60.23,259.7,61.65,256.63,61.65Z"/><path class="cls-1" d="M390.88,60.84c-19.06,0-52.5,78.06-26.45,89.51,3.27,1.43,7.36,2.42,10.69,0,47.07-34.14,60.45-104,30.93-97.12-1.65.38-.35,2.89-1.18,5.9-1.39,5-4.37,11.45-4.92,11.88,0,0,7.09,27.28-8.86,48.14-6,7.91-6.81,11-11.76,9.59-6.19-1.71,6.14-32.18,19.43-41,2-1.32,3.78.78,5.75-.87,2.58-2.16,2.79-8.79,1.55-12s2.83-10,.22-12.62C403.48,59.42,394,60.84,390.88,60.84Z"/><path class="cls-1" d="M65.1,10.83C33.66,10.89-28.29,132.17,14.69,151c5.4,2.37,11.68,3.28,17.65,0,16-8.8,54.12-40.49,69.21-64.3,8.05-12.71,11-19.88,9.29-21.36-2-1.68-6,1.49-9.22,4.08,0,0-53.9,64.43-65.49,61.23-10.21-2.82,9.06-72.11,31-86.6,3.31-2.18,8.89,4.49,12.15,1.76,4.26-3.56,6.2-14,4.16-19.25C79.27,15.9,74.85,10.81,65.1,10.83Z"/><path class="cls-1" d="M316.27,61.34c-19.06,0-52.5,78.06-26.45,89.51,3.27,1.43,7.08,2,10.69,0,9.71-5.33,21.81-21.58,31-36,4.88-7.7,6.68-12,5.63-12.95s-3.61.91-5.59,2.47c0,0-19.75,26.84-26.78,24.9-6.19-1.71,6.14-32.18,19.43-41,2-1.32,3.78.78,5.75-.87,2.58-2.16,2.79-8.79,1.55-12C329,68.94,322.2,61.33,316.27,61.34Z"/><path class="cls-1" d="M337.92,61.34c.23-1.68,14.28-4,14.51,3,3,92.94-37.51,214.36-84.48,201.88-11.24-3-20.09-37.57-9-59.46,19.41-38.28,89.95-84.77,96.5-86.65l2.93,6.79c-16.05,7.08-65.58,62-80.95,81.85-14,18-10,51.47.5,42.47C284,246,315.94,223.7,337.92,61.34Z"/><path class="cls-2" d="M129.8,81.34s21.85-2.51,36.1-11.33"/><path class="cls-2" d="M278.66,77.27s21.85-2.51,36.1-11.33"/></g></g></g></svg>